# xmcd
#
# Track frame offsets: 
#        150
#        14763
#        31121
#        53413
#        63406
#        83641
#        103049
#        117720
#        133424
#        142369
#        157874
#        182098
#        192246
#        218649
#        234650
#        255702
#        265254
#        285594
#        304302
#        314316
#
# Disc length: 4373 seconds
#
# Revision: 0
# Processed by: cddbd v1.5.2PL0 Copyright (c) Steve Scherf et al.
# Submitted via: ExactAudioCopy v0.99pb3
#
DISCID=29111314
DTITLE=Luu Hong - Dem da vu thu 6
DYEAR=1900
DGENRE=
TTITLE0=Rang dong tren que huong
TTITLE1=Hoa dau mua
TTITLE2=Le bong
TTITLE3=Khu nhac chachacha
TTITLE4=Tinh ho
TTITLE5=Co be hon doi
TTITLE6=Tro ve mai nha xua
TTITLE7=La thu buon
TTITLE8=Vui tron dem nay
TTITLE9=Thu den bao gio
TTITLE10=Qua con me
TTITLE11=Unchain my heart
TTITLE12=Loi dang cho cuoc tinh
TTITLE13=Nguoi nghe si nhin buoi chieu
TTITLE14=Bao gio ta gap lai ta
TTITLE15=Khi tinh yeu chap canh
TTITLE16=Tango medley
TTITLE17=Trom nhin nhau
TTITLE18=Guajras
TTITLE19=Rock around the clock
EXTD=
EXTT0=
EXTT1=
EXTT2=
EXTT3=
EXTT4=
EXTT5=
EXTT6=
EXTT7=
EXTT8=
EXTT9=
EXTT10=
EXTT11=
EXTT12=
EXTT13=
EXTT14=
EXTT15=
EXTT16=
EXTT17=
EXTT18=
EXTT19=
PLAYORDER=
